<svg xmlns="http://www.w3.org/2000/svg" height="40px" viewBox="0 -960 960 960" width="40px" fill="#ffffff"><path d="M565.13-330h50.25v-84.87h84.88v-50.26h-84.88V-550h-50.25v84.87h-84.87v50.26h84.87V-330ZM162.57-180q-25.79 0-44.18-18.57-18.39-18.56-18.39-44v-474.86q0-25.44 18.39-44Q136.78-780 162.57-780h239.51l70.25 70.26h325.1q25.44 0 44 18.56 18.57 18.57 18.57 44v404.61q0 25.44-18.57 44-18.56 18.57-44 18.57H162.57Zm0-50.26h634.86q5.39 0 8.85-3.46t3.46-8.85v-404.61q0-5.38-3.46-8.85-3.46-3.46-8.85-3.46H451.85l-70.26-70.25H162.57q-5.39 0-8.85 3.46t-3.46 8.85v474.86q0 5.39 3.46 8.85t8.85 3.46Zm-12.31 0v-499.48 499.48Z"/></svg>